<svg width="127" height="127" viewBox="0 0 127 127" fill="none" xmlns="http://www.w3.org/2000/svg">
<path d="M58.2083 42.3333H52.9167V31.75H58.2083V37.0417H68.7917V42.3333H63.5V47.625H58.2083V42.3333ZM68.7917 105.833V100.542H63.5V105.833H68.7917ZM63.5 26.4583V21.1667H52.9167V26.4583H58.2083V31.75H63.5V26.4583ZM105.833 21.1667V52.9167H100.542V47.625H79.375V21.1667H105.833ZM100.542 42.3333V26.4583H84.6667V42.3333H100.542ZM26.4583 52.9167H21.1667V58.2083H31.75V52.9167H26.4583ZM26.4583 68.7917H31.75V74.0833H37.0417V58.2083H31.75V63.5H21.1667V74.0833H26.4583V68.7917ZM52.9167 74.0833V84.6667H58.2083V74.0833H52.9167ZM74.0833 21.1667H68.7917V37.0417H74.0833V21.1667ZM74.0833 47.625V42.3333H68.7917V47.625H74.0833ZM89.9583 37.0417H95.25V31.75H89.9583V37.0417ZM37.0417 31.75H31.75V37.0417H37.0417V31.75ZM47.625 21.1667V47.625H21.1667V21.1667H47.625ZM42.3333 26.4583H26.4583V42.3333H42.3333V26.4583ZM89.9583 52.9167V58.2083H84.6667V52.9167H74.0833V58.2083H68.7917V52.9167H52.9167V47.625H47.625V52.9167H42.3333V58.2083H47.625V68.7917H52.9167V63.5H58.2083V74.0833H63.5V63.5H79.375V68.7917H68.7917V74.0833H79.375V79.375H84.6667V63.5H89.9583V68.7917H95.25V79.375H100.542V74.0833H105.833V68.7917H100.542V63.5H95.25V58.2083H100.542V52.9167H89.9583ZM31.75 95.25H37.0417V89.9583H31.75V95.25ZM21.1667 79.375H47.625V105.833H21.1667V79.375ZM26.4583 100.542H42.3333V84.6667H26.4583V100.542ZM89.9583 84.6667V79.375H84.6667V84.6667H89.9583ZM89.9583 89.9583H84.6667V95.25H79.375V89.9583H74.0833V84.6667H79.375V79.375H68.7917V74.0833H63.5V84.6667H58.2083V89.9583H52.9167V105.833H58.2083V100.542H63.5V95.25H74.0833V105.833H79.375V100.542H84.6667V105.833H95.25V100.542H100.542V95.25H89.9583V89.9583ZM42.3333 74.0833H47.625V68.7917H42.3333V74.0833ZM95.25 84.6667V89.9583H100.542V95.25H105.833V79.375H100.542V84.6667H95.25ZM105.833 105.833V100.542H100.542V105.833H105.833ZM105.833 63.5V58.2083H100.542V63.5H105.833ZM95.25 10.5833H116.417V31.75H127V0H95.25V10.5833ZM10.5833 31.75V10.5833H31.75V0H0V31.75H10.5833ZM31.75 116.417H10.5833V95.25H0V127H31.75V116.417ZM116.417 95.25V116.417H95.25V127H127V95.25H116.417Z" fill="black"/>
</svg>
