<svg width="125" height="125" viewBox="0 0 125 125" fill="none" xmlns="http://www.w3.org/2000/svg">
<path d="M98.9583 10.4167C107.573 10.4167 114.583 17.4271 114.583 26.0417V98.9583C114.583 107.573 107.573 114.583 98.9583 114.583H26.0417C17.4271 114.583 10.4167 107.573 10.4167 98.9583V26.0417C10.4167 17.4271 17.4271 10.4167 26.0417 10.4167H98.9583ZM98.9583 0H26.0417C11.6615 0 0 11.6615 0 26.0417V98.9583C0 113.339 11.6615 125 26.0417 125H98.9583C113.344 125 125 113.339 125 98.9583V26.0417C125 11.6615 113.344 0 98.9583 0ZM57.2917 41.6667H52.0833V31.25H57.2917V36.4583H67.7083V41.6667H62.5V46.875H57.2917V41.6667ZM67.7083 104.167V98.9583H62.5V104.167H67.7083ZM62.5 26.0417V20.8333H52.0833V26.0417H57.2917V31.25H62.5V26.0417ZM104.167 20.8333V52.0833H98.9583V46.875H78.125V20.8333H104.167ZM98.9583 41.6667V26.0417H83.3333V41.6667H98.9583ZM26.0417 52.0833H20.8333V57.2917H31.25V52.0833H26.0417ZM26.0417 67.7083H31.25V72.9167H36.4583V57.2917H31.25V62.5H20.8333V72.9167H26.0417V67.7083ZM52.0833 72.9167V83.3333H57.2917V72.9167H52.0833ZM72.9167 20.8333H67.7083V36.4583H72.9167V20.8333ZM72.9167 46.875V41.6667H67.7083V46.875H72.9167ZM88.5417 36.4583H93.75V31.25H88.5417V36.4583ZM36.4583 31.25H31.25V36.4583H36.4583V31.25ZM46.875 20.8333V46.875H20.8333V20.8333H46.875ZM41.6667 26.0417H26.0417V41.6667H41.6667V26.0417ZM88.5417 52.0833V57.2917H83.3333V52.0833H72.9167V57.2917H67.7083V52.0833H52.0833V46.875H46.875V52.0833H41.6667V57.2917H46.875V67.7083H52.0833V62.5H57.2917V72.9167H62.5V62.5H78.125V67.7083H67.7083V72.9167H78.125V78.125H83.3333V62.5H88.5417V67.7083H93.75V78.125H98.9583V72.9167H104.167V67.7083H98.9583V62.5H93.75V57.2917H98.9583V52.0833H88.5417ZM31.25 93.75H36.4583V88.5417H31.25V93.75ZM20.8333 78.125H46.875V104.167H20.8333V78.125ZM26.0417 98.9583H41.6667V83.3333H26.0417V98.9583ZM88.5417 83.3333V78.125H83.3333V83.3333H88.5417ZM88.5417 88.5417H83.3333V93.75H78.125V88.5417H72.9167V83.3333H78.125V78.125H67.7083V72.9167H62.5V83.3333H57.2917V88.5417H52.0833V104.167H57.2917V98.9583H62.5V93.75H72.9167V104.167H78.125V98.9583H83.3333V104.167H93.75V98.9583H98.9583V93.75H88.5417V88.5417ZM41.6667 72.9167H46.875V67.7083H41.6667V72.9167ZM93.75 83.3333V88.5417H98.9583V93.75H104.167V78.125H98.9583V83.3333H93.75ZM104.167 104.167V98.9583H98.9583V104.167H104.167ZM104.167 62.5V57.2917H98.9583V62.5H104.167Z" fill="black"/>
</svg>
